<svg xmlns="http://www.w3.org/2000/svg" viewBox="0 0 32 32">
  <rect width="32" height="32" rx="7" fill="#1a1512"/>
  <path fill="none" stroke="#a67c52" stroke-width="1.3" stroke-linecap="round" d="M11 8.5q0-1.5 1-2.5M16 7.5q0-2 1.2-3M21 8.5q0-1.5 1-2.5"/>
  <path fill="#f2e9e1" d="M8 13h9c1.1 0 2 .9 2 2v6c0 2.2-1.8 4-4 4h-5c-1.1 0-2-.9-2-2v-8c0-1.1.9-2 2-2z"/>
  <path fill="#1a1512" opacity=".12" d="M10 15h5v1H10z"/>
  <path fill="none" stroke="#a67c52" stroke-width="1.5" stroke-linecap="round" d="M19 15h2a2.5 2.5 0 0 1 0 5h-2"/>
</svg>
