<?xml version="1.0" encoding="UTF-8"?>
<svg xmlns="http://www.w3.org/2000/svg" viewBox="0 0 200 200" fill="none">
  <defs>
    <linearGradient id="ab-pile" x1="50%" y1="0%" x2="50%" y2="100%">
      <stop offset="0%" stop-color="#8fafbf"/>
      <stop offset="50%" stop-color="#5c7f92"/>
      <stop offset="100%" stop-color="#3d5566"/>
    </linearGradient>
    <pattern id="ab-fine" width="5" height="5" patternUnits="userSpaceOnUse">
      <circle cx="1.3" cy="1.3" r="0.65" fill="#1e3540" opacity="0.22"/>
      <circle cx="3.6" cy="2.4" r="0.45" fill="#1e3540" opacity="0.18"/>
      <circle cx="2.4" cy="4.1" r="0.55" fill="#1e3540" opacity="0.2"/>
    </pattern>
    <clipPath id="ab-mound">
      <path d="M38 158 Q100 62 162 158V168H38V158Z"/>
    </clipPath>
  </defs>
  <ellipse cx="100" cy="176" rx="72" ry="10" fill="#5C7F92" opacity="0.13"/>
  <path d="M38 158 Q100 62 162 158V168H38V158Z" fill="url(#ab-pile)" stroke="#3d5566" stroke-width="2"/>
  <rect x="0" y="0" width="200" height="200" fill="url(#ab-fine)" clip-path="url(#ab-mound)" opacity="0.8"/>
  <path d="M42 152 Q100 72 158 152" fill="none" stroke="#e8f4f8" stroke-width="1" opacity="0.18" stroke-linecap="round"/>
  <g transform="translate(54 172) rotate(-22)">
    <ellipse cx="0" cy="0" rx="9" ry="12" fill="#5C7F92" stroke="#2d4555" stroke-width="1.2"/>
    <path d="M-1-9 Q5 0 -1 9" stroke="#2d4555" stroke-width="1.4" stroke-linecap="round" opacity="0.65"/>
  </g>
  <g transform="translate(148 174) rotate(18)">
    <ellipse cx="0" cy="0" rx="7.5" ry="10" fill="#6d8fa0" stroke="#2d4555" stroke-width="1"/>
    <path d="M0-8 Q4 0 0 7" stroke="#2d4555" stroke-width="1.1" stroke-linecap="round" opacity="0.6"/>
  </g>
  <g stroke="#a8c4d4" stroke-width="1.8" stroke-linecap="round" opacity="0.6">
    <path d="M88 48c2-10 6-16 4-26"/>
    <path d="M100 44c0-12 4-20 2-32"/>
    <path d="M112 48c-2-10-2-18 0-26"/>
  </g>
</svg>
