<?xml version="1.0" encoding="UTF-8"?>
<svg xmlns="http://www.w3.org/2000/svg" viewBox="0 0 200 200" fill="none">
  <defs>
    <linearGradient id="rb-pile" x1="50%" y1="0%" x2="50%" y2="100%">
      <stop offset="0%" stop-color="#7a5540"/>
      <stop offset="55%" stop-color="#4a3428"/>
      <stop offset="100%" stop-color="#2d1f18"/>
    </linearGradient>
    <pattern id="rb-fine" width="5" height="5" patternUnits="userSpaceOnUse">
      <circle cx="1.3" cy="1.3" r="0.65" fill="#1a100c" opacity="0.28"/>
      <circle cx="3.6" cy="2.4" r="0.45" fill="#1a100c" opacity="0.22"/>
      <circle cx="2.4" cy="4.1" r="0.55" fill="#1a100c" opacity="0.26"/>
    </pattern>
    <clipPath id="rb-mound">
      <path d="M38 158 Q100 62 162 158V168H38V158Z"/>
    </clipPath>
  </defs>
  <ellipse cx="100" cy="176" rx="72" ry="10" fill="#4A3022" opacity="0.11"/>
  <path d="M38 158 Q100 62 162 158V168H38V158Z" fill="url(#rb-pile)" stroke="#3d2819" stroke-width="2"/>
  <rect x="0" y="0" width="200" height="200" fill="url(#rb-fine)" clip-path="url(#rb-mound)" opacity="0.85"/>
  <path d="M42 152 Q100 72 158 152" fill="none" stroke="#faf8f5" stroke-width="1" opacity="0.12" stroke-linecap="round"/>
  <g transform="translate(54 172) rotate(-22)">
    <ellipse cx="0" cy="0" rx="9" ry="12" fill="#4A3022" stroke="#2d1f18" stroke-width="1.2"/>
    <path d="M-1-9 Q5 0 -1 9" stroke="#2d1f18" stroke-width="1.4" stroke-linecap="round" opacity="0.7"/>
  </g>
  <g transform="translate(148 174) rotate(18)">
    <ellipse cx="0" cy="0" rx="7.5" ry="10" fill="#5c4032" stroke="#2d1f18" stroke-width="1"/>
    <path d="M0-8 Q4 0 0 7" stroke="#2d1f18" stroke-width="1.1" stroke-linecap="round" opacity="0.65"/>
  </g>
  <g stroke="#c49a6c" stroke-width="1.8" stroke-linecap="round" opacity="0.55">
    <path d="M88 48c2-10 6-16 4-26"/>
    <path d="M100 44c0-12 4-20 2-32"/>
    <path d="M112 48c-2-10-2-18 0-26"/>
  </g>
</svg>
